<svg width="326" height="41" viewBox="0 0 326 41" fill="none" xmlns="http://www.w3.org/2000/svg">
<path d="M17.6645 37.8215C18.6408 36.5198 21.6645 31.7605 22.5052 30.608C24.6137 27.5165 27.5561 24.3503 30.8035 21.6995C31.3052 21.2927 32.4306 19.991 31.5222 18.4859C31.5222 18.4859 34.1527 15.869 33.495 12.7232C33.3933 12.2283 33.6306 11.7402 34.0442 11.4215C35.1764 10.5605 35.6781 9.15713 35.3391 7.75374C35.0408 6.48594 34.0239 5.46899 32.7561 5.17069C31.3662 4.83848 29.9289 5.34696 29.095 6.47238C28.3832 7.43509 27.1696 6.96052 26.851 6.96052C23.8747 6.96052 22.0374 9.00798 22.0374 9.00798C20.5527 8.10628 19.2645 9.19103 18.8306 9.72662C16.1866 12.9741 13.0272 15.9232 9.91538 18.0453C8.78318 18.8656 4.03064 21.8961 2.72894 22.8724C1.77301 23.591 -0.376144 26.4181 2.28148 29.0758L11.4611 38.269C13.9764 40.791 16.8781 38.8724 17.6645 37.8215ZM27.5289 8.91984C28.7154 9.06899 29.8883 8.59442 30.6137 7.62492C31.0069 7.10967 31.6578 6.87238 32.3154 7.03509C32.8781 7.17069 33.3459 7.63848 33.4815 8.2012C33.6645 8.98764 33.2984 9.59103 32.8917 9.90289C31.9154 10.6419 31.434 11.8012 31.6035 12.9944C31.8137 14.4995 31.3256 15.9775 30.2544 17.0554L30.234 17.0758L23.4611 10.2961C23.4544 10.2893 25.312 8.64187 27.5289 8.91984ZM12.8103 36.9198L3.63064 27.7266C2.20013 26.2961 3.35945 24.7842 3.8747 24.4046C5.11538 23.4758 9.86114 20.4453 11.0137 19.6114C14.2476 17.4012 17.5493 14.3232 20.3154 10.9334C20.451 10.7707 20.8849 10.4181 21.3459 10.8792L29.651 19.191C30.1188 19.6588 29.7527 20.0927 29.5967 20.2215C26.2137 22.9876 23.1357 26.2893 20.9459 29.5097C20.0917 30.6893 17.0679 35.4351 16.1391 36.6826C15.712 37.2385 14.2476 38.3571 12.8103 36.9198Z" fill="#746F61" stroke="#746F61"/>
<path d="M21.0205 16.913L19.9425 15.8351C19.5697 15.4622 18.9663 15.4622 18.5934 15.8351C18.2205 16.208 18.2205 16.8114 18.5934 17.1842L19.6713 18.2622C20.2341 18.8249 20.8374 18.452 21.0205 18.2622C21.3934 17.8893 21.3934 17.2859 21.0205 16.913Z" fill="#746F61" stroke="#746F61"/>
<path d="M17.834 20.1063L16.756 19.0283C16.3831 18.6554 15.7797 18.6554 15.4069 19.0283C15.034 19.4012 15.034 20.0046 15.4069 20.3775L16.4848 21.4554C17.0475 22.0181 17.6509 21.6453 17.834 21.4554C18.2069 21.0826 18.2069 20.4792 17.834 20.1063Z" fill="#746F61" stroke="#746F61"/>
<path d="M14.6409 23.2995L13.5629 22.2216C13.19 21.8487 12.5866 21.8487 12.2137 22.2216C11.8409 22.5944 11.8409 23.1978 12.2137 23.5707L13.2917 24.6487C13.8544 25.2114 14.4578 24.8385 14.6409 24.6487C15.0137 24.2826 15.0137 23.6724 14.6409 23.2995Z" fill="#746F61" stroke="#746F61"/>
<path d="M11.4475 26.4995L10.3695 25.4215C9.99665 25.0486 9.39327 25.0486 9.02038 25.4215C8.6475 25.7944 8.6475 26.3978 9.02038 26.7707L10.0983 27.8486C10.6611 28.4113 11.2645 28.0385 11.4475 27.8486C11.8204 27.4757 11.8204 26.8724 11.4475 26.4995Z" fill="#746F61" stroke="#746F61"/>
<path d="M180.155 25.8127C180.155 29.925 178.721 33.3176 175.853 35.9905C172.985 38.6635 169.707 40 166.019 40C162.332 40 159.071 38.6635 156.237 35.9905C153.403 33.3518 151.986 29.9764 151.986 25.8641C151.986 23.0198 152.72 20.4839 154.188 18.2564C155.657 16.0632 157.449 14.4354 159.566 13.3731C161.649 12.345 163.817 11.831 166.07 11.831C168.324 11.831 170.509 12.3793 172.626 13.4759C174.743 14.6068 176.536 16.2517 178.004 18.4106C179.438 20.6038 180.155 23.0712 180.155 25.8127Z" fill="#07D203"/>
<path d="M325.507 25.8127C325.507 29.925 324.073 33.3176 321.205 35.9905C318.337 38.6635 315.059 40 311.371 40C307.684 40 304.423 38.6635 301.589 35.9905C298.755 33.3518 297.338 29.9764 297.338 25.8641C297.338 23.0198 298.072 20.4839 299.54 18.2564C301.009 16.0632 302.801 14.4354 304.918 13.3731C307.001 12.345 309.169 11.831 311.423 11.831C313.676 11.831 315.861 12.3793 317.978 13.4759C320.095 14.6068 321.888 16.2517 323.356 18.4106C324.79 20.6038 325.507 23.0712 325.507 25.8127Z" fill="#FF8A00"/>
<path d="M67.0085 26.0714L73.8162 31.6837C74.6693 32.398 75.1982 32.9422 75.403 33.3163C75.6418 33.6905 75.7613 34.0476 75.7613 34.3878C75.7613 35.2041 75.2323 36.3095 74.1745 37.7041C73.0143 39.1327 71.9906 39.8469 71.1034 39.8469C70.3526 39.8469 69.3118 39.3537 67.981 38.3673L67.4692 38.0102C66.6843 37.3639 65.4729 36.2415 63.835 34.6429C62.197 33.0102 60.9515 31.8537 60.0984 31.1735V35.102C60.0984 35.8844 60.0643 36.4796 59.996 36.8878C59.9619 37.2619 59.8083 37.7041 59.5354 38.2143C59.0917 39.0986 57.778 39.5408 55.594 39.5408C53.4442 39.5408 52.1305 39.0816 51.6527 38.1633C51.4139 37.6531 51.2603 37.2109 51.1921 36.8367C51.1579 36.4286 51.1409 35.8333 51.1409 35.051V4.4898C51.1409 3.70748 51.1579 3.12925 51.1921 2.7551C51.2603 2.34694 51.4139 1.88775 51.6527 1.37755C52.1305 0.459183 53.4613 0 55.6452 0C57.2832 0 58.4434 0.289116 59.1259 0.867348C59.706 1.34354 60.0131 2.09184 60.0472 3.11224C60.0813 3.41837 60.0984 3.89456 60.0984 4.54082V20.7143C60.7126 20.2041 61.634 19.3367 62.8624 18.1122C64.125 16.8878 65.0634 16.0204 65.6777 15.5102L66.2919 15.102C67.4862 14.1837 68.5099 13.7245 69.363 13.7245C70.2161 13.7245 71.1887 14.4218 72.2806 15.8163C73.4067 17.1769 73.9698 18.2483 73.9698 19.0306C73.9698 19.8129 73.3385 20.7313 72.0759 21.7857L67.0085 26.0714Z" fill="#746F61"/>
<path d="M78.5833 17.1429C78.5833 16.3605 78.6004 15.7823 78.6345 15.4082C78.7027 15 78.8563 14.5408 79.0951 14.0306C79.5729 13.1463 80.9037 12.7041 83.0876 12.7041C84.7256 12.7041 85.8858 12.9932 86.5683 13.5714C87.1484 14.0476 87.4555 14.7789 87.4896 15.7653C87.5238 16.1054 87.5408 16.5986 87.5408 17.2449V35.102C87.5408 35.8844 87.5067 36.4796 87.4384 36.8878C87.4043 37.2619 87.2508 37.7041 86.9778 38.2143C86.5342 39.0986 85.2204 39.5408 83.0365 39.5408C80.8867 39.5408 79.5729 39.0816 79.0951 38.1633C78.8563 37.6531 78.7027 37.2109 78.6345 36.8367C78.6004 36.4626 78.5833 35.8673 78.5833 35.051V17.1429ZM86.9778 7.70408C86.7389 8.18027 86.2953 8.52041 85.6469 8.72449C84.9986 8.92857 84.1284 9.03061 83.0365 9.03061C81.9786 9.03061 81.1255 8.92857 80.4772 8.72449C79.8288 8.52041 79.3681 8.16327 79.0951 7.65306C78.8563 7.14286 78.7027 6.70068 78.6345 6.32653C78.6004 5.91837 78.5833 5.32313 78.5833 4.54082C78.5833 3.7585 78.6004 3.18027 78.6345 2.80612C78.7027 2.39796 78.8563 1.95578 79.0951 1.47959C79.5729 0.561224 80.9037 0.10204 83.0876 0.10204C85.2374 0.10204 86.5342 0.561224 86.9778 1.47959C87.2508 1.9898 87.4043 2.44898 87.4384 2.85714C87.5067 3.23129 87.5408 3.80953 87.5408 4.59184C87.5408 5.37415 87.5067 5.96939 87.4384 6.37755C87.4043 6.7517 87.2508 7.19388 86.9778 7.70408Z" fill="#746F61"/>
<path d="M109.698 1.47959C109.971 0.969388 110.432 0.612246 111.08 0.408165C111.729 0.204082 112.582 0.10204 113.64 0.10204C114.732 0.10204 115.602 0.204082 116.25 0.408165C116.898 0.612246 117.342 0.969388 117.581 1.47959C117.854 1.9898 118.007 2.44898 118.042 2.85714C118.11 3.23129 118.144 3.80953 118.144 4.59184V35.051C118.144 35.8333 118.11 36.4286 118.042 36.8367C118.007 37.2109 117.854 37.6361 117.581 38.1122C117.069 39.0306 115.619 39.4898 113.23 39.4898C110.876 39.4898 109.562 38.6565 109.289 36.9898C107.856 38.6224 105.859 39.4388 103.3 39.4388C100.229 39.4388 97.4307 38.1122 94.9056 35.4592C92.3804 32.7721 91.1178 29.6599 91.1178 26.1224C91.1178 22.551 92.3804 19.4218 94.9056 16.7347C97.4649 14.0476 100.263 12.7041 103.3 12.7041C105.825 12.7041 107.787 13.5544 109.186 15.2551V4.54082C109.186 3.7585 109.203 3.18027 109.238 2.80612C109.306 2.39796 109.459 1.95578 109.698 1.47959Z" fill="#746F61"/>
<path d="M140.29 1.47959C140.563 0.969388 141.024 0.612246 141.672 0.408165C142.32 0.204082 143.173 0.10204 144.231 0.10204C145.323 0.10204 146.193 0.204082 146.842 0.408165C147.49 0.612246 147.934 0.969388 148.172 1.47959C148.445 1.9898 148.599 2.44898 148.633 2.85714C148.701 3.23129 148.736 3.80953 148.736 4.59184V35.051C148.736 35.8333 148.701 36.4286 148.633 36.8367C148.599 37.2109 148.445 37.6361 148.172 38.1122C147.661 39.0306 146.21 39.4898 143.822 39.4898C141.467 39.4898 140.153 38.6565 139.88 36.9898C138.447 38.6224 136.451 39.4388 133.892 39.4388C130.82 39.4388 128.022 38.1122 125.497 35.4592C122.972 32.7721 121.709 29.6599 121.709 26.1224C121.709 22.551 122.972 19.4218 125.497 16.7347C128.056 14.0476 130.855 12.7041 133.892 12.7041C136.417 12.7041 138.379 13.5544 139.778 15.2551V4.54082C139.778 3.7585 139.795 3.18027 139.829 2.80612C139.897 2.39796 140.051 1.95578 140.29 1.47959Z" fill="#746F61"/>
<path d="M212.318 26.0714L219.126 31.6837C219.979 32.398 220.508 32.9422 220.713 33.3163C220.952 33.6905 221.071 34.0476 221.071 34.3878C221.071 35.2041 220.542 36.3095 219.484 37.7041C218.324 39.1327 217.3 39.8469 216.413 39.8469C215.662 39.8469 214.622 39.3537 213.291 38.3673L212.779 38.0102C211.994 37.3639 210.783 36.2415 209.145 34.6429C207.507 33.0102 206.261 31.8537 205.408 31.1735V35.102C205.408 35.8844 205.374 36.4796 205.306 36.8878C205.272 37.2619 205.118 37.7041 204.845 38.2143C204.402 39.0986 203.088 39.5408 200.904 39.5408C198.754 39.5408 197.44 39.0816 196.963 38.1633C196.724 37.6531 196.57 37.2109 196.502 36.8367C196.468 36.4286 196.451 35.8333 196.451 35.051V4.4898C196.451 3.70748 196.468 3.12925 196.502 2.7551C196.57 2.34694 196.724 1.88775 196.963 1.37755C197.44 0.459183 198.771 0 200.955 0C202.593 0 203.753 0.289116 204.436 0.867348C205.016 1.34354 205.323 2.09184 205.357 3.11224C205.391 3.41837 205.408 3.89456 205.408 4.54082V20.7143C206.022 20.2041 206.944 19.3367 208.172 18.1122C209.435 16.8878 210.373 16.0204 210.988 15.5102L211.602 15.102C212.796 14.1837 213.82 13.7245 214.673 13.7245C215.526 13.7245 216.499 14.4218 217.59 15.8163C218.717 17.1769 219.28 18.2483 219.28 19.0306C219.28 19.8129 218.648 20.7313 217.386 21.7857L212.318 26.0714Z" fill="#746F61"/>
<path d="M223.893 17.1429C223.893 16.3605 223.91 15.7823 223.944 15.4082C224.013 15 224.166 14.5408 224.405 14.0306C224.883 13.1463 226.214 12.7041 228.398 12.7041C230.035 12.7041 231.196 12.9932 231.878 13.5714C232.458 14.0476 232.765 14.7789 232.799 15.7653C232.834 16.1054 232.851 16.5986 232.851 17.2449V35.102C232.851 35.8844 232.817 36.4796 232.748 36.8878C232.714 37.2619 232.561 37.7041 232.288 38.2143C231.844 39.0986 230.53 39.5408 228.346 39.5408C226.197 39.5408 224.883 39.0816 224.405 38.1633C224.166 37.6531 224.013 37.2109 223.944 36.8367C223.91 36.4626 223.893 35.8673 223.893 35.051V17.1429ZM232.288 7.70408C232.049 8.18027 231.605 8.52041 230.957 8.72449C230.308 8.92857 229.438 9.03061 228.346 9.03061C227.288 9.03061 226.435 8.92857 225.787 8.72449C225.139 8.52041 224.678 8.16327 224.405 7.65306C224.166 7.14286 224.013 6.70068 223.944 6.32653C223.91 5.91837 223.893 5.32313 223.893 4.54082C223.893 3.7585 223.91 3.18027 223.944 2.80612C224.013 2.39796 224.166 1.95578 224.405 1.47959C224.883 0.561224 226.214 0.10204 228.398 0.10204C230.547 0.10204 231.844 0.561224 232.288 1.47959C232.561 1.9898 232.714 2.44898 232.748 2.85714C232.817 3.23129 232.851 3.80953 232.851 4.59184C232.851 5.37415 232.817 5.96939 232.748 6.37755C232.714 6.7517 232.561 7.19388 232.288 7.70408Z" fill="#746F61"/>
<path d="M255.008 1.47959C255.281 0.969388 255.742 0.612246 256.39 0.408165C257.039 0.204082 257.892 0.10204 258.949 0.10204C260.041 0.10204 260.912 0.204082 261.56 0.408165C262.208 0.612246 262.652 0.969388 262.891 1.47959C263.164 1.9898 263.317 2.44898 263.351 2.85714C263.42 3.23129 263.454 3.80953 263.454 4.59184V35.051C263.454 35.8333 263.42 36.4286 263.351 36.8367C263.317 37.2109 263.164 37.6361 262.891 38.1122C262.379 39.0306 260.929 39.4898 258.54 39.4898C256.185 39.4898 254.872 38.6565 254.599 36.9898C253.165 38.6224 251.169 39.4388 248.61 39.4388C245.539 39.4388 242.741 38.1122 240.215 35.4592C237.69 32.7721 236.428 29.6599 236.428 26.1224C236.428 22.551 237.69 19.4218 240.215 16.7347C242.775 14.0476 245.573 12.7041 248.61 12.7041C251.135 12.7041 253.097 13.5544 254.496 15.2551V4.54082C254.496 3.7585 254.513 3.18027 254.547 2.80612C254.616 2.39796 254.769 1.95578 255.008 1.47959Z" fill="#746F61"/>
<path d="M285.6 1.47959C285.873 0.969388 286.333 0.612246 286.982 0.408165C287.63 0.204082 288.483 0.10204 289.541 0.10204C290.633 0.10204 291.503 0.204082 292.151 0.408165C292.8 0.612246 293.243 0.969388 293.482 1.47959C293.755 1.9898 293.909 2.44898 293.943 2.85714C294.011 3.23129 294.045 3.80953 294.045 4.59184V35.051C294.045 35.8333 294.011 36.4286 293.943 36.8367C293.909 37.2109 293.755 37.6361 293.482 38.1122C292.97 39.0306 291.52 39.4898 289.132 39.4898C286.777 39.4898 285.463 38.6565 285.19 36.9898C283.757 38.6224 281.761 39.4388 279.201 39.4388C276.13 39.4388 273.332 38.1122 270.807 35.4592C268.282 32.7721 267.019 29.6599 267.019 26.1224C267.019 22.551 268.282 19.4218 270.807 16.7347C273.366 14.0476 276.164 12.7041 279.201 12.7041C281.727 12.7041 283.689 13.5544 285.088 15.2551V4.54082C285.088 3.7585 285.105 3.18027 285.139 2.80612C285.207 2.39796 285.361 1.95578 285.6 1.47959Z" fill="#746F61"/>
</svg>
